<?xml version="1.0" encoding="iso-8859-1"?>
<!-- Generator: Adobe Illustrator 19.0.0, SVG Export Plug-In . SVG Version: 6.00 Build 0)  -->
<svg version="1.1" id="Layer_1" xmlns="http://www.w3.org/2000/svg" xmlns:xlink="http://www.w3.org/1999/xlink" x="0px" y="0px"
	 viewBox="0 0 504 504" style="enable-background:new 0 0 504 504;" xml:space="preserve">
<circle style="fill:#7AC943;" cx="360" cy="395.6" r="24"/>
<circle style="fill:#FFC600;" cx="200" cy="235.6" r="24"/>
<g>
	<circle style="fill:#EE5656;" cx="464" cy="235.6" r="24"/>
	<circle style="fill:#EE5656;" cx="40" cy="395.6" r="24"/>
</g>
<path style="fill:#2FB4C2;" d="M224,85.2c73.6,11.2,128,74.4,128,150.4S297.6,374,224,386v-32.8c55.2-11.2,96-60.8,96-117.6
	S279.2,129.2,224,118V85.2z"/>
<path id="SVGCleanerId_0" style="fill:#FF6600;" d="M176,353.2V386c-29.6-4.8-56.8-18.4-77.6-36.8l23.2-23.2
	C136.8,338.8,155.2,349.2,176,353.2z"/>
<path style="fill:#FF6600;" d="M176,85.2V118c-55.2,11.2-96,60.8-96,117.6c0,29.6,11.2,57.6,29.6,78.4l-23.2,23.2
	C62.4,310,48,274.8,48,235.6C48,160.4,102.4,97.2,176,85.2z"/>
<path style="fill:#42210B;" d="M224,386c73.6-11.2,128-74.4,128-150.4S297.6,97.2,224,85.2V118c55.2,11.2,96,60.8,96,117.6
	S279.2,342,224,353.2V386z M80,235.6c0-56.8,40.8-106.4,96-117.6V85.2c-73.6,12-128,75.2-128,150.4c0,39.2,14.4,74.4,39.2,101.6
	l23.2-23.2C91.2,293.2,80,265.2,80,235.6z M176,386v-32.8c-20.8-4-39.2-13.6-55.2-27.2l-23.2,23.2C119.2,367.6,146.4,381.2,176,386z
	 M200,259.6c12.8,0,24-10.4,24-24c0-12.8-11.2-24-24-24s-24,11.2-24,24C176,249.2,187.2,259.6,200,259.6z M360,419.6
	c13.6,0,24-10.4,24-24c0-13.6-10.4-24-24-24s-24,10.4-24,24C336,409.2,346.4,419.6,360,419.6z M464,259.6c13.6,0,24-10.4,24-24
	c0-12.8-10.4-24-24-24s-24,11.2-24,24C440,249.2,450.4,259.6,464,259.6z M0,395.6c0-22.4,17.6-40,40-40c8,0,16,2.4,22.4,6.4
	L76,348.4c-27.2-29.6-44-69.6-44-112.8c0-86.4,64.8-158.4,151.2-167.2l8.8-0.8v64l-7.2,0.8c-50.4,8-88.8,52-88.8,103.2
	c0,25.6,9.6,49.6,24.8,67.2l45.6-45.6c-4-5.6-6.4-13.6-6.4-21.6c0-22.4,17.6-40,40-40s40,17.6,40,40c0,8-2.4,16-6.4,22.4l45.6,45.6
	c16-18.4,25.6-42.4,25.6-67.2c0-51.2-38.4-95.2-88.8-103.2l-8-1.6v-64l8.8,0.8C303.2,77.2,368,149.2,368,235.6
	c0,43.2-16,83.2-43.2,112.8l13.6,13.6c5.6-4,13.6-6.4,21.6-6.4c7.2,0,14.4,2.4,20.8,5.6l56-96.8c-8-7.2-12.8-17.6-12.8-28.8
	c0-22.4,17.6-40,40-40s40,17.6,40,40s-17.6,40-40,40c-4.8,0-9.6-0.8-14.4-2.4l-56.8,100c4.8,6.4,7.2,14.4,7.2,23.2
	c0,22.4-17.6,40-40,40s-40-17.6-40-40c0-8,2.4-16,6.4-22.4l-13.6-13.6c-25.6,23.2-59.2,39.2-96,42.4l-8.8,0.8v-64l7.2-0.8
	c20-3.2,38.4-11.2,52.8-24l-45.6-45.6c-6.4,4-14.4,6.4-22.4,6.4s-16-2.4-22.4-6.4L132,314.8c14.4,12.8,32.8,20.8,52.8,24l7.2,0.8v64
	l-8.8-0.8c-37.6-4-70.4-19.2-96-42.4L73.6,374c4,5.6,6.4,13.6,6.4,21.6c0,22.4-17.6,40-40,40S0,418,0,395.6z M40,371.6
	c-13.6,0-24,10.4-24,24c0,13.6,10.4,24,24,24s24-10.4,24-24C64,382,53.6,371.6,40,371.6z"/>
<path style="fill:#FF5400;" d="M64,235.6C64,270,76.8,302,98.4,326l11.2-11.2C91.2,293.2,80,265.2,80,235.6
	c0-56.8,40.8-106.4,96-117.6v-16C112,113.2,64,168.4,64,235.6z"/>
<path id="SVGCleanerId_1" style="fill:#FF5400;" d="M109.6,337.2c18.4,16,40.8,28,66.4,32v-16c-20.8-4-39.2-13.6-54.4-27.2
	L109.6,337.2z"/>
<g>
	<path id="SVGCleanerId_1_1_" style="fill:#FF5400;" d="M109.6,337.2c18.4,16,40.8,28,66.4,32v-16c-20.8-4-39.2-13.6-54.4-27.2
		L109.6,337.2z"/>
</g>
<g>
	<path id="SVGCleanerId_0_1_" style="fill:#FF6600;" d="M176,353.2V386c-29.6-4.8-56.8-18.4-77.6-36.8l23.2-23.2
		C136.8,338.8,155.2,349.2,176,353.2z"/>
</g>
<path style="fill:#1D9AAE;" d="M224,353.2v16C288,358,336,302,336,235.6S288,113.2,224,102v16c55.2,11.2,96,60.8,96,117.6
	S279.2,342,224,353.2z"/>
<g>
</g>
<g>
</g>
<g>
</g>
<g>
</g>
<g>
</g>
<g>
</g>
<g>
</g>
<g>
</g>
<g>
</g>
<g>
</g>
<g>
</g>
<g>
</g>
<g>
</g>
<g>
</g>
<g>
</g>
</svg>
