<?xml version="1.0" encoding="UTF-8" standalone="no"?>
<!-- Created with Inkscape (http://www.inkscape.org/) -->

<svg
   version="1.1"
   id="svg2"
   width="160"
   height="160"
   viewBox="0 0 160 160"
   sodipodi:docname="LogoSolvo.svg"
   inkscape:version="1.2.1 (9c6d41e410, 2022-07-14)"
   xmlns:inkscape="http://www.inkscape.org/namespaces/inkscape"
   xmlns:sodipodi="http://sodipodi.sourceforge.net/DTD/sodipodi-0.dtd"
   xmlns="http://www.w3.org/2000/svg"
   xmlns:svg="http://www.w3.org/2000/svg">
  <defs
     id="defs6" />
  <sodipodi:namedview
     id="namedview4"
     pagecolor="#ffffff"
     bordercolor="#000000"
     borderopacity="0.25"
     inkscape:showpageshadow="2"
     inkscape:pageopacity="0.0"
     inkscape:pagecheckerboard="0"
     inkscape:deskcolor="#d1d1d1"
     showgrid="false"
     inkscape:zoom="2.3201941"
     inkscape:cx="47.409826"
     inkscape:cy="81.243202"
     inkscape:window-width="1350"
     inkscape:window-height="728"
     inkscape:window-x="0"
     inkscape:window-y="0"
     inkscape:window-maximized="0"
     inkscape:current-layer="g8" />
  <g
     inkscape:groupmode="layer"
     inkscape:label="Image"
     id="g8">
    <g
       id="g188"
       transform="matrix(1.032163,0,0,0.9675354,-1.9317385,2.6053901)">
      <path
         style="fill:#149bb8"
         d="M 72.30236,158.98821 C 70.006565,158.06366 67,153.25064 67,150.5 c 0,-3.004 2.901937,-7.21687 5.702842,-8.27906 C 74.241279,141.63751 81.125,140.91856 88,140.62327 c 12.96932,-0.55704 20.40444,-1.61932 30.31073,-4.33056 5.5759,-1.52607 5.92662,-1.81993 8.67856,-7.27149 8.0624,-15.97154 8.03903,-35.087055 -0.0629,-51.435573 -1.61205,-3.252894 -2.77019,-6.075168 -2.57364,-6.27172 0.19655,-0.196552 3.66445,1.339907 7.70643,3.414353 8.32704,4.273637 16.61118,11.851796 19.42733,17.77172 2.95045,6.202233 3.18283,15.09787 0.5412,20.71769 -3.00119,6.38476 -11.55803,14.15609 -20.08805,18.24399 -5.23424,2.50844 -9.04139,5.37205 -14.28764,10.74664 -4.86078,4.9797 -9.4723,8.53893 -14.39474,11.11004 -10.513876,5.49165 -24.868524,8.12092 -30.95491,5.66985 z M 115.86779,68.990981 C 106.77338,66.508729 93.563665,65.006178 80.805764,65.002817 70.968865,65.000226 69.888416,64.808088 67.328491,62.606133 65.10378,60.692517 64.545455,59.367212 64.545455,56 c 0,-3.367212 0.558325,-4.692517 2.783036,-6.606133 C 69.745377,47.314949 71.12907,47 77.845665,47 c 14.233329,0 26.659745,4.948933 37.410145,14.898934 4.66793,4.320385 9.01737,9.520315 7.52937,9.001663 -0.15685,-0.05467 -3.26968,-0.913999 -6.91739,-1.909616 z"
         id="path192" />
      <path
         style="fill:#de6a1b"
         d="M 76.5,112.93108 C 63.098452,111.12596 49.35315,103.79129 41.157693,94.071965 38.870962,91.360037 37,88.971621 37,88.764373 c 0,-0.207247 4.1625,0.679213 9.25,1.969913 5.815912,1.475498 15.308717,2.779426 25.569656,3.512239 15.158421,1.082581 16.492588,1.338446 18.75,3.595858 3.362491,3.362487 3.351126,9.327747 -0.0242,12.703067 -1.35,1.35 -3.113196,2.45455 -3.918213,2.45455 -0.805017,0 -2.062971,0.16633 -2.795455,0.36962 C 83.099304,113.57292 79.8,113.37557 76.5,112.93108 Z M 27.230061,83.995108 C -1.4460978,69.642237 -0.25374339,42.60605 29.716756,27.61022 32.585972,26.174599 35.35519,25 35.870574,25 c 0.515384,0 -0.374299,2.421167 -1.977072,5.380372 -3.574256,6.599157 -6.899481,19.186784 -6.876138,26.029591 0.02565,7.517992 2.566044,18.283966 5.914585,25.065468 1.622787,3.286487 2.819331,6.106623 2.658985,6.266969 -0.160346,0.160346 -3.922739,-1.525936 -8.360873,-3.747292 z M 38.847419,22.285101 C 40.417227,19.351888 50.163626,10.680192 55.222999,7.7152016 63.198684,3.0411387 71.69619,0.77941841 81.828003,0.63393836 c 9.052576,-0.12998358 9.399516,-0.051093 11.75,2.67182534 3.20056,3.7076899 3.204063,8.6734443 0.0087,12.3884723 -2.402606,2.793378 -2.471121,2.806371 -15.521119,2.943179 -17.005645,0.178278 -30.617798,1.929948 -38.431957,4.94559 -1.620771,0.625488 -1.724222,0.454717 -0.786247,-1.297904 z"
         id="path190" />
    </g>
  </g>
</svg>
